<?xml version="1.0" encoding="UTF-8" standalone="no"?>
<!DOCTYPE svg PUBLIC "-//W3C//DTD SVG 1.1//EN" "http://www.w3.org/Graphics/SVG/1.1/DTD/svg11.dtd">
<svg version="1.1" xmlns="http://www.w3.org/2000/svg" xmlns:xlink="http://www.w3.org/1999/xlink" preserveAspectRatio="xMidYMid meet" viewBox="0 0 615 615" width="615" height="615"><defs><path d="M139.2 197.44C139.2 212.59 126.9 224.89 111.75 224.89C96.6 224.89 84.3 212.59 84.3 197.44C84.3 182.29 96.6 169.99 111.75 169.99C126.9 169.99 139.2 182.29 139.2 197.44Z" id="a1dHurbt5w"></path><path d="M139.2 400.02C139.2 415.17 126.9 427.47 111.75 427.47C96.6 427.47 84.3 415.17 84.3 400.02C84.3 384.87 96.6 372.57 111.75 372.57C126.9 372.57 139.2 384.87 139.2 400.02Z" id="byRcUI95v"></path><path d="M327.23 104.12C327.23 119.27 314.94 131.57 299.79 131.57C284.64 131.57 272.34 119.27 272.34 104.12C272.34 88.98 284.64 76.68 299.79 76.68C314.94 76.68 327.23 88.98 327.23 104.12Z" id="fzotGsUk3"></path><path d="M327.23 296.43C327.23 311.57 314.94 323.87 299.79 323.87C284.64 323.87 272.34 311.57 272.34 296.43C272.34 281.28 284.64 268.98 299.79 268.98C314.94 268.98 327.23 281.28 327.23 296.43Z" id="c5fnQAG8q"></path><path d="M327.23 497.72C327.23 512.87 314.94 525.17 299.79 525.17C284.64 525.17 272.34 512.87 272.34 497.72C272.34 482.57 284.64 470.27 299.79 470.27C314.94 470.27 327.23 482.57 327.23 497.72Z" id="avKWfHLKv"></path><path d="M532.85 296.43C532.85 311.57 520.55 323.87 505.4 323.87C490.25 323.87 477.96 311.57 477.96 296.43C477.96 281.28 490.25 268.98 505.4 268.98C520.55 268.98 532.85 281.28 532.85 296.43Z" id="c1YHoh5112"></path><path d="M299.79 296.43L111.75 400.02" id="a2yAxEUtC4"></path><path d="M505.4 296.43L303.14 296.43L118.17 205.15" id="b1F19HmPD3"></path><path d="M299.79 502.86L111.75 400.02" id="b357nJJeIJ"></path><path d="M299.79 502.86L505.4 296.43L299.79 104.12L111.75 205.15" id="iWSrWFka8"></path><path d="" id="bsJl9m49r"></path><path d="M111.75 197.44L12.82 197.44" id="f2pdnGKFm1"></path><path d="M12.82 400.02L111.75 400.02" id="d2LoCXUvNA"></path><path d="M604.33 296.43L505.4 296.43" id="alBRav4a"></path><path d="M299.79 104.12L111.75 400.02" id="aZ4e828cQ"></path><path d="M299.79 500.48L111.75 197.44" id="b1LmLPRXFa"></path></defs><g><g><g><use xlink:href="#a1dHurbt5w" opacity="1" fill="#000000" fill-opacity="1"></use></g><g><use xlink:href="#byRcUI95v" opacity="1" fill="#000000" fill-opacity="1"></use></g><g><use xlink:href="#fzotGsUk3" opacity="1" fill="#000000" fill-opacity="1"></use></g><g><use xlink:href="#c5fnQAG8q" opacity="1" fill="#000000" fill-opacity="1"></use></g><g><use xlink:href="#avKWfHLKv" opacity="1" fill="#000000" fill-opacity="1"></use></g><g><use xlink:href="#c1YHoh5112" opacity="1" fill="#000000" fill-opacity="1"></use></g><g><g><use xlink:href="#a2yAxEUtC4" opacity="1" fill-opacity="0" stroke="#000000" stroke-width="7" stroke-opacity="1"></use></g></g><g><g><use xlink:href="#b1F19HmPD3" opacity="1" fill-opacity="0" stroke="#000000" stroke-width="7" stroke-opacity="1"></use></g></g><g><g><use xlink:href="#b357nJJeIJ" opacity="1" fill-opacity="0" stroke="#000000" stroke-width="7" stroke-opacity="1"></use></g></g><g><g><use xlink:href="#iWSrWFka8" opacity="1" fill-opacity="0" stroke="#000000" stroke-width="7" stroke-opacity="1"></use></g></g><g><g><use xlink:href="#bsJl9m49r" opacity="1" fill-opacity="0" stroke="#000000" stroke-width="1" stroke-opacity="1"></use></g></g><g><g><use xlink:href="#f2pdnGKFm1" opacity="1" fill-opacity="0" stroke="#000000" stroke-width="7" stroke-opacity="1"></use></g></g><g><g><use xlink:href="#d2LoCXUvNA" opacity="1" fill-opacity="0" stroke="#000000" stroke-width="7" stroke-opacity="1"></use></g></g><g><g><use xlink:href="#alBRav4a" opacity="1" fill-opacity="0" stroke="#000000" stroke-width="7" stroke-opacity="1"></use></g></g><g><g><use xlink:href="#aZ4e828cQ" opacity="1" fill-opacity="0" stroke="#000000" stroke-width="7" stroke-opacity="1"></use></g></g><g><g><use xlink:href="#b1LmLPRXFa" opacity="1" fill-opacity="0" stroke="#000000" stroke-width="7" stroke-opacity="1"></use></g></g></g></g></svg>